<svg width="423" height="145" viewBox="0 0 423 145" fill="none" xmlns="http://www.w3.org/2000/svg">
<ellipse cx="67.5" cy="69" rx="67.5" ry="69" fill="#F05E7C"/>
<path d="M38.76 95.64C36.0293 95.64 33.4907 95.256 31.144 94.488C28.84 93.6773 26.8347 92.5467 25.128 91.096C23.4213 89.6453 22.12 87.96 21.224 86.04C20.8827 85.3573 20.8613 84.7387 21.16 84.184C21.5013 83.5867 22.056 83.1813 22.824 82.968C23.4213 82.7973 23.9973 82.8613 24.552 83.16C25.1493 83.4587 25.5973 83.9067 25.896 84.504C26.536 85.7413 27.4747 86.8507 28.712 87.832C29.9493 88.8133 31.4213 89.5813 33.128 90.136C34.8347 90.648 36.712 90.904 38.76 90.904C41.0213 90.904 43.0267 90.5413 44.776 89.816C46.5253 89.048 47.8907 87.96 48.872 86.552C49.896 85.1013 50.408 83.352 50.408 81.304C50.408 78.7013 49.448 76.4613 47.528 74.584C45.608 72.7067 42.6 71.512 38.504 71C33.512 70.4027 29.608 68.8667 26.792 66.392C23.976 63.8747 22.568 60.8027 22.568 57.176C22.568 54.5733 23.2507 52.312 24.616 50.392C26.024 48.472 27.944 47 30.376 45.976C32.808 44.9093 35.6027 44.376 38.76 44.376C41.1067 44.376 43.24 44.76 45.16 45.528C47.08 46.2533 48.744 47.2347 50.152 48.472C51.6027 49.6667 52.776 50.9893 53.672 52.44C54.0987 53.1227 54.2267 53.784 54.056 54.424C53.928 55.064 53.5653 55.5547 52.968 55.896C52.328 56.1947 51.6667 56.2373 50.984 56.024C50.344 55.8107 49.8533 55.4053 49.512 54.808C48.872 53.8267 48.0613 52.9093 47.08 52.056C46.1413 51.16 44.9893 50.456 43.624 49.944C42.2587 49.432 40.616 49.1547 38.696 49.112C35.3253 49.112 32.616 49.8373 30.568 51.288C28.52 52.696 27.496 54.7653 27.496 57.496C27.496 58.9467 27.88 60.2907 28.648 61.528C29.416 62.7227 30.6747 63.768 32.424 64.664C34.216 65.5173 36.6053 66.1573 39.592 66.584C44.9253 67.352 48.872 68.9947 51.432 71.512C54.0347 73.9867 55.336 77.2293 55.336 81.24C55.336 83.544 54.9093 85.592 54.056 87.384C53.2453 89.176 52.072 90.6907 50.536 91.928C49.0427 93.1227 47.272 94.04 45.224 94.68C43.2187 95.32 41.064 95.64 38.76 95.64ZM88.879 95.64C85.167 95.64 81.7537 95 78.639 93.72C75.5243 92.44 72.815 90.648 70.511 88.344C68.2497 86.04 66.479 83.3307 65.199 80.216C63.9617 77.1013 63.343 73.688 63.343 69.976C63.343 66.3067 63.9617 62.9147 65.199 59.8C66.479 56.6853 68.2497 53.976 70.511 51.672C72.815 49.368 75.5243 47.576 78.639 46.296C81.7537 45.016 85.167 44.376 88.879 44.376C92.5483 44.376 95.9403 45.016 99.055 46.296C102.17 47.576 104.879 49.368 107.183 51.672C109.487 53.976 111.258 56.6853 112.495 59.8C113.775 62.9147 114.415 66.3067 114.415 69.976C114.415 73.688 113.775 77.1013 112.495 80.216C111.258 83.3307 109.487 86.04 107.183 88.344C104.879 90.648 102.17 92.44 99.055 93.72C95.9403 95 92.5483 95.64 88.879 95.64ZM88.879 90.904C91.823 90.904 94.5537 90.392 97.071 89.368C99.5883 88.3013 101.764 86.8293 103.599 84.952C105.476 83.032 106.927 80.8133 107.951 78.296C108.975 75.736 109.487 72.9627 109.487 69.976C109.487 67.032 108.975 64.3013 107.951 61.784C106.927 59.224 105.476 57.0053 103.599 55.128C101.764 53.208 99.5883 51.736 97.071 50.712C94.5537 49.6453 91.823 49.112 88.879 49.112C85.8923 49.112 83.1403 49.6453 80.623 50.712C78.1057 51.736 75.9083 53.208 74.031 55.128C72.1963 57.0053 70.767 59.224 69.743 61.784C68.719 64.3013 68.207 67.032 68.207 69.976C68.207 72.9627 68.719 75.736 69.743 78.296C70.767 80.8133 72.1963 83.032 74.031 84.952C75.9083 86.8293 78.1057 88.3013 80.623 89.368C83.1403 90.392 85.8923 90.904 88.879 90.904Z" fill="white"/>
<path d="M169.896 95C169.171 95 168.573 94.7653 168.104 94.296C167.635 93.8267 167.4 93.2293 167.4 92.504V47.512C167.4 46.7867 167.635 46.1893 168.104 45.72C168.573 45.2507 169.171 45.016 169.896 45.016H182.696C185.853 45.016 188.648 45.72 191.08 47.128C193.512 48.4933 195.411 50.392 196.776 52.824C198.141 55.256 198.824 58.072 198.824 61.272C198.824 64.3867 198.141 67.16 196.776 69.592C195.411 71.9813 193.512 73.88 191.08 75.288C188.648 76.6533 185.853 77.336 182.696 77.336H172.392V92.504C172.392 93.2293 172.157 93.8267 171.688 94.296C171.219 94.7653 170.621 95 169.896 95ZM172.392 72.536H182.696C184.872 72.536 186.813 72.0667 188.52 71.128C190.227 70.1467 191.549 68.8027 192.488 67.096C193.469 65.3893 193.96 63.448 193.96 61.272C193.96 59.0107 193.469 57.0267 192.488 55.32C191.549 53.6133 190.227 52.2693 188.52 51.288C186.813 50.3067 184.872 49.816 182.696 49.816H172.392V72.536ZM220.634 95.32C217.22 95.32 214.17 94.552 211.482 93.016C208.794 91.48 206.682 89.368 205.146 86.68C203.61 83.992 202.842 80.9413 202.842 77.528C202.842 74.072 203.61 71 205.146 68.312C206.682 65.624 208.794 63.512 211.482 61.976C214.17 60.44 217.22 59.672 220.634 59.672C224.047 59.672 227.076 60.44 229.722 61.976C232.41 63.512 234.522 65.624 236.058 68.312C237.594 71 238.383 74.072 238.426 77.528C238.426 80.9413 237.636 83.992 236.058 86.68C234.522 89.368 232.41 91.48 229.722 93.016C227.076 94.552 224.047 95.32 220.634 95.32ZM220.634 90.84C223.108 90.84 225.327 90.264 227.29 89.112C229.252 87.96 230.788 86.3813 231.898 84.376C233.007 82.3707 233.562 80.088 233.562 77.528C233.562 74.968 233.007 72.6853 231.898 70.68C230.788 68.632 229.252 67.032 227.29 65.88C225.327 64.728 223.108 64.152 220.634 64.152C218.159 64.152 215.94 64.728 213.978 65.88C212.015 67.032 210.458 68.632 209.306 70.68C208.196 72.6853 207.642 74.968 207.642 77.528C207.642 80.088 208.196 82.3707 209.306 84.376C210.458 86.3813 212.015 87.96 213.978 89.112C215.94 90.264 218.159 90.84 220.634 90.84ZM260.234 95.32C257.717 95.32 255.221 94.8933 252.746 94.04C250.271 93.1867 248.266 91.9067 246.73 90.2C246.261 89.688 246.069 89.112 246.154 88.472C246.239 87.832 246.559 87.2773 247.114 86.808C247.711 86.3813 248.33 86.2107 248.97 86.296C249.61 86.3813 250.143 86.6587 250.57 87.128C251.594 88.3227 252.938 89.24 254.602 89.88C256.309 90.52 258.186 90.84 260.234 90.84C263.391 90.84 265.674 90.3067 267.082 89.24C268.49 88.1307 269.215 86.808 269.258 85.272C269.258 83.736 268.533 82.4773 267.082 81.496C265.631 80.472 263.242 79.6827 259.914 79.128C255.605 78.4453 252.447 77.2507 250.442 75.544C248.437 73.8373 247.434 71.8107 247.434 69.464C247.434 67.288 248.01 65.4747 249.162 64.024C250.314 62.5733 251.85 61.4853 253.77 60.76C255.69 60.0347 257.802 59.672 260.106 59.672C262.965 59.672 265.418 60.1627 267.466 61.144C269.557 62.1253 271.242 63.448 272.522 65.112C272.949 65.6667 273.119 66.2427 273.034 66.84C272.949 67.4373 272.607 67.928 272.01 68.312C271.498 68.6107 270.901 68.7173 270.218 68.632C269.578 68.504 269.023 68.184 268.554 67.672C267.487 66.4347 266.25 65.5387 264.842 64.984C263.434 64.3867 261.813 64.088 259.978 64.088C257.631 64.088 255.754 64.5787 254.346 65.56C252.938 66.4987 252.234 67.6933 252.234 69.144C252.234 70.1253 252.49 70.9787 253.002 71.704C253.557 72.4293 254.474 73.0693 255.754 73.624C257.077 74.1787 258.911 74.648 261.258 75.032C264.458 75.544 266.975 76.312 268.81 77.336C270.687 78.3173 272.01 79.4907 272.778 80.856C273.589 82.1787 273.994 83.6293 273.994 85.208C273.994 87.2133 273.397 88.984 272.202 90.52C271.05 92.0133 269.429 93.1867 267.338 94.04C265.29 94.8933 262.922 95.32 260.234 95.32ZM285.006 80.728C284.238 80.728 283.619 80.4933 283.15 80.024C282.723 79.5547 282.51 78.9573 282.51 78.232V47.512C282.51 46.744 282.723 46.1467 283.15 45.72C283.619 45.2507 284.238 45.016 285.006 45.016C285.731 45.016 286.307 45.2507 286.734 45.72C287.203 46.1467 287.438 46.744 287.438 47.512V78.232C287.438 78.9573 287.203 79.5547 286.734 80.024C286.307 80.4933 285.731 80.728 285.006 80.728ZM312.526 95C311.801 95 311.203 94.7653 310.734 94.296C310.265 93.8267 310.03 93.2507 310.03 92.568V75.928C310.03 73.2827 309.518 71.1067 308.494 69.4C307.513 67.6933 306.147 66.4133 304.398 65.56C302.691 64.7067 300.75 64.28 298.574 64.28C296.483 64.28 294.585 64.6853 292.878 65.496C291.214 66.3067 289.891 67.416 288.91 68.824C287.929 70.232 287.438 71.832 287.438 73.624H283.918C284.003 70.936 284.729 68.5467 286.094 66.456C287.459 64.3227 289.273 62.6587 291.534 61.464C293.795 60.2267 296.313 59.608 299.086 59.608C302.115 59.608 304.825 60.248 307.214 61.528C309.603 62.7653 311.481 64.6 312.846 67.032C314.254 69.464 314.958 72.4293 314.958 75.928V92.568C314.958 93.2507 314.723 93.8267 314.254 94.296C313.785 94.7653 313.209 95 312.526 95ZM285.006 95C284.238 95 283.619 94.7867 283.15 94.36C282.723 93.8907 282.51 93.2933 282.51 92.568V62.488C282.51 61.72 282.723 61.1227 283.15 60.696C283.619 60.2267 284.238 59.992 285.006 59.992C285.731 59.992 286.307 60.2267 286.734 60.696C287.203 61.1227 287.438 61.72 287.438 62.488V92.568C287.438 93.2933 287.203 93.8907 286.734 94.36C286.307 94.7867 285.731 95 285.006 95Z" fill="black"/>
</svg>
